{"title":"Laura","uid":8840724,"size":89785719,"categoryP":"video","categoryS":"movie_clips","magnet":"?xt=urn:btih:e95fa6402255ec88b1dc2ec1501e6de9cfef3785&amp;dn=Laura&amp;tr=udp%3A%2F%2Ftracker.openbittorrent.com%3A80&amp;tr=udp%3A%2F%2Fopen.demonii.com%3A1337&amp;tr=udp%3A%2F%2Ftracker.coppersurfer.tk%3A6969&amp;tr=udp%3A%2F%2Fexodus.desync.com%3A6969","seeders":0,"leechers":0,"uploader":"patrick-gillett","files":1,"time":1377236512,"description":"Video\nID                                       : 2\nFormat                                   : VC-1\nFormat profile                           : Main\nCodec ID                                 : WMV3\nCodec ID/Info                            : Windows Media Video 9\nCodec ID/Hint                            : WMV3\nDescription of the codec                 : Windows Media Video 9 - Professional\nDuration                                 : 1mn 26s\nBit rate mode                            : Variable\nBit rate                                 : 10 000 Kbps\nWidth                                    : 1 998 pixels\nHeight                                   : 1 080 pixels\nDisplay aspect ratio                     : 1.85:1\nFrame rate                               : 25.000 fps\nBit depth                                : 8 bits\nScan type                                : Progressive\nCompression mode                         : Lossy\nBits/(Pixel*Frame)                       : 0.185\nStream size                              : 103 MiB\nNumberOfFrames                           : 2150\n\nAudio\nID                                       : 1\nFormat                                   : WMA\nFormat profile                           : Pro\nCodec ID                                 : 162\nCodec ID/Info                            : Windows Media Audio\nDescription of the codec                 : Windows Media Audio 10 Professional - 440 kbps, 48 kHz, 5.1 channel 24 bit 2-pass VBR\nDuration                                 : 1mn 26s\nBit rate mode                            : Variable\nBit rate                                 : 317 Kbps\nChannel(s)                               : 6 channels\nSampling rate                            : 48.0 KHz\nBit depth                                : 24 bits\nStream size                              : 3.27 MiB (4%)\nNumberOfFrames                           : 181\n","torrent":{"xt":"urn:btih:e95fa6402255ec88b1dc2ec1501e6de9cfef3785","amp;dn":"Laura","amp;tr":["udp%3A%2F%2Ftracker.openbittorrent.com%3A80","udp%3A%2F%2Fopen.demonii.com%3A1337","udp%3A%2F%2Ftracker.coppersurfer.tk%3A6969","udp%3A%2F%2Fexodus.desync.com%3A6969"],"infoHash":"e95fa6402255ec88b1dc2ec1501e6de9cfef3785","infoHashBuffer":{"type":"Buffer","data":[233,95,166,64,34,85,236,136,177,220,46,193,80,30,109,233,207,239,55,133]},"announce":[],"urlList":[]}}